<svg xmlns="http://www.w3.org/2000/svg" version="1.1" xmlns:xlink="http://www.w3.org/1999/xlink" xmlns:svgjs="http://svgjs.dev/svgjs" viewBox="0 0 800 800"><defs><linearGradient x1="50%" y1="0%" x2="50%" y2="100%" id="ssspill-grad"><stop stop-color="hsl(50, 98%, 60%)" stop-opacity="1" offset="45%"></stop><stop stop-color="hsl(37, 91%, 55%)" stop-opacity="1" offset="100%"></stop></linearGradient><filter id="ssspot-filter" x="-20%" y="-20%" width="140%" height="140%" filterUnits="objectBoundingBox" primitiveUnits="userSpaceOnUse" color-interpolation-filters="sRGB">
	<feTurbulence type="turbulence" baseFrequency="0.022 0.218" numOctaves="2" seed="239" stitchTiles="stitch" x="0%" y="0%" width="100%" height="100%" result="turbulence"></feTurbulence>
	<feGaussianBlur stdDeviation="0 3" x="0%" y="0%" width="100%" height="100%" in="turbulence" edgeMode="duplicate" result="blur"></feGaussianBlur>
	<feDisplacementMap in="SourceGraphic" in2="blur" scale="32" xChannelSelector="R" yChannelSelector="B" x="0%" y="0%" width="100%" height="100%" result="displacementMap"></feDisplacementMap>
</filter></defs><rect width="100%" height="100%" fill="hsl(0, 0%, 0%)"></rect><g fill="url(#ssspill-grad)" filter="url(#ssspot-filter)"><circle r="3.7166416695385767" cx="254.7312978468878" cy="285.54299929431704" opacity="0.24263256725166096"></circle><circle r="5.286298913572425" cx="561.1388067232033" cy="319.71354298107303" opacity="0.32512410111958917"></circle><circle r="4.979266717772104" cx="78.66688200982533" cy="550.0922536190686" opacity="0.9346312068596897"></circle><circle r="7.4303789984085205" cx="771.3033449429483" cy="392.04274481510976" opacity="0.6895156838292873"></circle><circle r="10.692728100318808" cx="501.76001591000426" cy="121.22032992436968" opacity="0.5346811998720159"></circle><circle r="3.285453249168746" cx="461.6115256930807" cy="289.86189296614657" opacity="0.8090882946021158"></circle><circle r="3.891848043002106" cx="451.1534119317525" cy="265.0988685538313" opacity="0.8290058591939384"></circle><circle r="6.408282728930262" cx="527.4252085481716" cy="57.590970171229394" opacity="0.5044636412755165"></circle><circle r="4.956354546017661" cx="48.670878140539166" cy="782.2867074874332" opacity="0.6412484327332796"></circle><circle r="7.617951740750092" cx="352.7246544067432" cy="543.8851341523656" opacity="0.8935416651996844"></circle><circle r="9.076650813854677" cx="465.7861204186246" cy="364.33580812455153" opacity="0.44384437475467275"></circle><circle r="7.709436682431205" cx="728.5992895618913" cy="404.1994428028185" opacity="0.13234672003649148"></circle><circle r="8.360263391226368" cx="200.9405229135129" cy="123.87793678124285" opacity="0.5510094485841822"></circle><circle r="9.452419407035425" cx="65.60914733521035" cy="508.02090611722497" opacity="0.4951289553790822"></circle><circle r="4.389257972932111" cx="614.2598839444337" cy="783.4228271107527" opacity="0.7123352072120069"></circle><circle r="2.841277784903722" cx="509.75104514116276" cy="308.9347325279221" opacity="0.24309167217812305"></circle><circle r="6.54579609146139" cx="133.83181816002306" cy="564.1073455554526" opacity="0.14353414527958822"></circle><circle r="10.891539730867603" cx="161.88723297861756" cy="87.4684990638062" opacity="0.6561045458434275"></circle><circle r="6.648423712512929" cx="684.4580100856003" cy="543.6652681627662" opacity="0.7895983160580538"></circle><circle r="5.133499044739857" cx="21.800874874354708" cy="20.010920005742303" opacity="0.3662273097299701"></circle><circle r="3.6569291890590803" cx="90.73784610174657" cy="130.6071571391727" opacity="0.6877288515482031"></circle><circle r="7.194060394333805" cx="660.4668582193908" cy="44.451908054094886" opacity="0.33544958283373705"></circle><circle r="11.245705091052354" cx="424.0387928067957" cy="38.1011158219672" opacity="0.6555281954927656"></circle><circle r="6.672076661829909" cx="350.12889934756936" cy="661.0733742831737" opacity="0.2437028699276555"></circle><circle r="7.7454024793160245" cx="23.793763576938282" cy="148.57485463622234" opacity="0.9720422802993991"></circle><circle r="8.320179967139499" cx="75.25872412919966" cy="165.56613463352713" opacity="0.6211901556715718"></circle><circle r="8.515885073807606" cx="140.52885982828863" cy="673.915286995452" opacity="0.15304852720836604"></circle><circle r="8.002929429154188" cx="726.2472009703486" cy="171.25942025757914" opacity="0.7384438012820609"></circle><circle r="7.4691398239530455" cx="283.2183578014768" cy="712.8353308996134" opacity="0.12513861027126816"></circle><circle r="6.915692958949473" cx="71.32676315471569" cy="200.4460514691039" opacity="0.3243041720058369"></circle><circle r="8.197345323166001" cx="772.3591627322446" cy="70.10899944047782" opacity="0.6670266980988858"></circle><circle r="5.077999808321325" cx="136.5484328996448" cy="385.0358649029977" opacity="0.8614183082174451"></circle><circle r="9.133958311801326" cx="244.47573553560386" cy="520.2774054895415" opacity="0.9975182269609335"></circle><circle r="5.8385892720560815" cx="357.9125036521101" cy="439.40564156859614" opacity="0.29460567577871044"></circle><circle r="8.241655588503184" cx="694.1524869145609" cy="427.999256604492" opacity="0.22443236712027662"></circle><circle r="6.375987005202898" cx="715.0089789162517" cy="481.61290111013733" opacity="0.4996006636665199"></circle><circle r="6.9047932938992735" cx="628.4288653361689" cy="200.75430767857284" opacity="0.25808656593651325"></circle><circle r="5.457660612771487" cx="722.5175342449147" cy="704.6559595203298" opacity="0.7986720950587648"></circle><circle r="4.299205383488293" cx="609.0947345143642" cy="17.601698144291788" opacity="0.7173855075634186"></circle><circle r="8.369903817764731" cx="54.46882473459288" cy="458.6703465242853" opacity="0.9814285620597345"></circle><circle r="7.595841210993689" cx="605.1717851013859" cy="511.23734625403785" opacity="0.26415663714421583"></circle><circle r="4.0100480704345065" cx="19.520420929521094" cy="519.0922722650286" opacity="0.49327349540681875"></circle><circle r="10.611267272059987" cx="310.45359440123815" cy="567.9683523387058" opacity="0.4435871681813506"></circle><circle r="6.671657176481823" cx="342.230301351736" cy="338.2427010870419" opacity="0.6323450469670665"></circle><circle r="8.52621566136992" cx="60.642942253172635" cy="587.9855433654174" opacity="0.14188211573034223"></circle><circle r="5.55350154511536" cx="706.4388095589105" cy="580.1219592112079" opacity="0.5053229197292455"></circle><circle r="5.0144004153679305" cx="535.7184421814843" cy="98.83631224567864" opacity="0.8658273260154853"></circle><circle r="8.030909955425926" cx="488.5625768388271" cy="327.5513710689965" opacity="0.6918097691091595"></circle><circle r="6.956723109245969" cx="22.59011865232016" cy="487.2483411896145" opacity="0.336897255325409"></circle><circle r="7.335261098474087" cx="387.3290103312433" cy="297.33132047910016" opacity="0.833300397563342"></circle><circle r="6.028702798089082" cx="530.1268642994297" cy="336.45338767742624" opacity="0.3677139002947005"></circle><circle r="4.598344902562339" cx="725.9980067686333" cy="452.7438768405621" opacity="0.36416738056759446"></circle><circle r="6.751905647929666" cx="261.5274254210119" cy="462.9872359713138" opacity="0.20273706305401462"></circle><circle r="8.718794274986536" cx="468.0600698254427" cy="154.07070994613608" opacity="0.5622400171665659"></circle><circle r="7.265659461451997" cx="592.5494790238481" cy="683.3351109119112" opacity="0.364069638286564"></circle><circle r="10.835084677359859" cx="308.0428623746868" cy="626.9635594835428" opacity="0.6134834257238837"></circle><circle r="13.532314576622454" cx="771.9972280636039" cy="618.8975860022389" opacity="0.2300962911061777"></circle><circle r="3.8584625404597235" cx="315.31033749221587" cy="298.8533574586479" opacity="0.7747527621438234"></circle><circle r="6.827350709928421" cx="630.4612116509792" cy="592.15071218074" opacity="0.7118028250930752"></circle><circle r="7.481078140672755" cx="415.06146707557264" cy="389.24841135462106" opacity="0.47353615974819985"></circle><circle r="5.622681598904739" cx="627.365661719923" cy="741.9741266622165" opacity="0.2770023647334846"></circle><circle r="8.281556846710327" cx="641.0881018779218" cy="457.9072087018434" opacity="0.8679146298810264"></circle><circle r="5.272022975453062" cx="740.8578390013693" cy="21.519795608377148" opacity="0.17633610082289558"></circle><circle r="5.699911460802057" cx="43.36848461453205" cy="323.1079359251727" opacity="0.24647246900277314"></circle><circle r="5.16831986684771" cx="694.2817149421913" cy="111.9324969675427" opacity="0.747324727237963"></circle><circle r="6.149504404908457" cx="652.50528613315" cy="97.68749367631588" opacity="0.779144746443601"></circle><circle r="3.7405170225827407" cx="388.281884311422" cy="406.80873604911744" opacity="0.5582795571474577"></circle><circle r="9.100554066132553" cx="495.11422702096223" cy="191.20961649687786" opacity="0.9705704496268613"></circle><circle r="7.390723529737304" cx="556.1308272537664" cy="264.43690925944236" opacity="0.2815112994089552"></circle><circle r="8.820267023960845" cx="105.4070037531963" cy="754.4436356267109" opacity="0.4659914729576329"></circle><circle r="8.180076550672796" cx="304.6001382445648" cy="19.298006544155847" opacity="0.968388777118139"></circle><circle r="9.023041426257322" cx="56.719964847282554" cy="282.7870641906827" opacity="0.3844987066164631"></circle><circle r="5.2240280571448805" cx="380.6606772260688" cy="750.2044476917215" opacity="0.5676348216278414"></circle><circle r="8.876438381796069" cx="335.5846756639013" cy="772.2017002181339" opacity="0.154941755782962"></circle><circle r="12.314021523930634" cx="415.91229522611656" cy="600.1099313844373" opacity="0.10841473740646224"></circle><circle r="5.180329576659127" cx="245.48560299971373" cy="16.738036059766184" opacity="0.17394026274646365"></circle><circle r="4.67069863213265" cx="273.45408847160815" cy="267.3493311800983" opacity="0.21778888307573754"></circle><circle r="8.616994037961373" cx="396.5643501807616" cy="138.4403932908365" opacity="0.9596745267930493"></circle><circle r="8.358302045009793" cx="375.62919599230804" cy="78.8336184541134" opacity="0.36935926528690377"></circle><circle r="4.422459814684204" cx="375.4069862744811" cy="786.7256113137479" opacity="0.8887218138347782"></circle><circle r="7.048764619892131" cx="253.85328459434564" cy="746.3415690630604" opacity="0.8948745295050928"></circle><circle r="5.691778049002196" cx="322.86802977261885" cy="245.32177466926856" opacity="0.867636661599027"></circle><circle r="5.287312327693767" cx="358.16105411088785" cy="268.53912783238076" opacity="0.8549705900359965"></circle><circle r="7.531030412225888" cx="585.6541973039775" cy="585.288912898567" opacity="0.5029015524449219"></circle><circle r="6.971999822471796" cx="430.7522358998529" cy="172.59721058916855" opacity="0.8495652438561965"></circle><circle r="6.44476223987944" cx="527.184554401604" cy="460.66525849987147" opacity="0.8568243367257878"></circle><circle r="5.984028892539564" cx="251.48675827808984" cy="118.14875821447009" opacity="0.2747264026469281"></circle><circle r="5.626601007864451" cx="16.920582955179327" cy="344.9111595501883" opacity="0.5008694603209848"></circle><circle r="10.005468239905182" cx="647.6197871510326" cy="686.905816167768" opacity="0.6046367216904311"></circle><circle r="6.26403630423663" cx="300.1280751649303" cy="266.4500203351324" opacity="0.4231395012253514"></circle><circle r="4.961388304658668" cx="236.67922566484083" cy="157.97834867380107" opacity="0.7558992682611712"></circle><circle r="7.70740899524662" cx="248.3650510992654" cy="334.72415544162544" opacity="0.645600710823313"></circle><circle r="8.023925363956641" cx="620.6335646759284" cy="113.81232994816204" opacity="0.5424203960720544"></circle><circle r="5.949008532461399" cx="589.8269859574501" cy="53.813914903267126" opacity="0.22579444250604944"></circle><circle r="4.601532192937382" cx="47.79176958147928" cy="536.4849525078218" opacity="0.6674842051243908"></circle><circle r="5.1121369167889785" cx="37.36048557730215" cy="738.3641681378698" opacity="0.8983324901748345"></circle><circle r="8.852339597503411" cx="774.245032304497" cy="305.1398513797247" opacity="0.4409524953699162"></circle><circle r="7.273920662360361" cx="17.593410674884872" cy="588.1863745288673" opacity="0.27021835438085295"></circle><circle r="9.18248873272119" cx="678.9673630226986" cy="723.4772699426179" opacity="0.6243289187805071"></circle><circle r="7.21473385114629" cx="241.91189584937754" cy="52.5849732244628" opacity="0.6349895831180147"></circle><circle r="7.0021067281624125" cx="448.8453979909771" cy="651.5504888007968" opacity="0.1725143152654232"></circle><circle r="11.510116369455105" cx="293.54233381046595" cy="510.8800997632267" opacity="0.4873612351200881"></circle><circle r="7.005970903056879" cx="126.60143368840934" cy="300.07658566862625" opacity="0.8184319303326153"></circle><circle r="5.997640972629795" cx="114.08076126738037" cy="111.37514982409917" opacity="0.9132219919611918"></circle><circle r="7.014695805427073" cx="324.2018514453988" cy="58.30264396565751" opacity="0.44404227297069043"></circle><circle r="6.870713640091582" cx="664.6903439176457" cy="397.5842160362392" opacity="0.5547288448360712"></circle><circle r="6.231767253520293" cx="38.36767326261946" cy="51.49324617022885" opacity="0.5118123645219069"></circle><circle r="7.072849863089612" cx="570.909066102532" cy="410.61605085351147" opacity="0.9837296494591188"></circle><circle r="9.649817520806252" cx="657.5345319255558" cy="346.1602287224821" opacity="0.9453730721868896"></circle><circle r="10.865305794992778" cx="481.3588047211452" cy="600.6548969487657" opacity="0.49960286195734005"></circle><circle r="5.066441218226733" cx="173.93667179474488" cy="15.996969737803886" opacity="0.2486656684087799"></circle><circle r="6.67103060200179" cx="20.036536823981958" cy="389.23580237873915" opacity="0.3359562709873571"></circle><circle r="5.180342302336523" cx="533.6941355983848" cy="300.3564351346119" opacity="0.965376021724352"></circle><circle r="7.950586951037749" cx="775.8148631316199" cy="441.21507294989635" opacity="0.2924277097935578"></circle><circle r="5.424488533921393" cx="18.3718209991625" cy="788.9021913818422" opacity="0.6192711355444983"></circle><circle r="3.757937563614939" cx="18.027056503879752" cy="720.178408527715" opacity="0.21635333505806864"></circle><circle r="6.483196537345617" cx="632.6961450277854" cy="285.0734612607692" opacity="0.7469331153265044"></circle><circle r="5.412433217465166" cx="467.9854262202298" cy="473.6509720427465" opacity="0.8929428159126681"></circle><circle r="7.19463771574729" cx="37.40530670312805" cy="100.70202006366164" opacity="0.8451406245999119"></circle><circle r="3.6476687930992" cx="293.58157058454475" cy="752.41183490834" opacity="0.5789927241530634"></circle><circle r="4.787426531988255" cx="472.44696933315356" cy="217.8791437450325" opacity="0.841612846015731"></circle><circle r="8.334259991915232" cx="242.68973423877483" cy="195.88656105966245" opacity="0.1595394824606615"></circle><circle r="5.72463013352674" cx="304.36074422453686" cy="209.62937481505034" opacity="0.192816091194555"></circle><circle r="4.261403778656632" cx="17.16889474215302" cy="653.0836805633037" opacity="0.49528536686941305"></circle><circle r="6.335694411284116" cx="380.9486447170625" cy="350.0730593454701" opacity="0.43870914328999766"></circle><circle r="8.217329723085388" cx="349.15316450161475" cy="301.3588323782626" opacity="0.12484583180384146"></circle><circle r="4.7988447727943555" cx="358.59308614829325" cy="115.5620090935287" opacity="0.2586978149747765"></circle><circle r="7.768288122710684" cx="454.611716788132" cy="418.6083176333831" opacity="0.6502356074930035"></circle><circle r="9.186171479308992" cx="176.56111684683702" cy="695.3855544914586" opacity="0.9589473265997829"></circle><circle r="7.094308125968766" cx="440.3277808261601" cy="107.3570253731063" opacity="0.7261165667557321"></circle><circle r="14.79168725842991" cx="768.4714492834031" cy="557.2291665248581" opacity="0.36454308602800267"></circle><circle r="6.565304122485001" cx="216.7039935306234" cy="406.5584205411719" opacity="0.12808006221889653"></circle><circle r="5.007845449818063" cx="11.87944080549535" cy="83.4469181614778" opacity="0.2525796712446402"></circle><circle r="6.170965763636199" cx="49.97570533577883" cy="411.19712724200724" opacity="0.44337507557058764"></circle><circle r="7.788669371174398" cx="728.6825091985759" cy="356.0008250390947" opacity="0.6178275601962424"></circle><circle r="8.67341264540152" cx="282.26042368061877" cy="402.8885356969107" opacity="0.5810329210586023"></circle><circle r="6.1179371277865515" cx="156.26444508345816" cy="608.862405608699" opacity="0.3617503221124698"></circle><circle r="6.049092183210982" cx="91.37243741389355" cy="238.6792965561552" opacity="0.5377998834750526"></circle><circle r="6.563822190452182" cx="165.66522575074416" cy="324.61736383745114" opacity="0.4339176307277599"></circle><circle r="9.078503479849228" cx="177.0209925959847" cy="554.9484096965591" opacity="0.9877124025089633"></circle><circle r="6.472104678527588" cx="76.49229597090938" cy="663.9380663468461" opacity="0.8014517395802909"></circle><circle r="4.6668864374898975" cx="390.558435954608" cy="202.10421091327441" opacity="0.9498702555174992"></circle><circle r="7.741348807358664" cx="102.66404835961495" cy="273.51493670317905" opacity="0.4700661845127472"></circle><circle r="8.349865562659566" cx="774.9630329982573" cy="161.92228797742038" opacity="0.982279573340937"></circle><circle r="7.624866435258248" cx="615.3050121655656" cy="414.92701441333406" opacity="0.6846694318750532"></circle><circle r="6.820808440257688" cx="183.80543732762663" cy="362.56122747340464" opacity="0.49394401076910355"></circle><circle r="6.057467847141253" cx="173.12599757960993" cy="649.2734699378361" opacity="0.811899914909636"></circle><circle r="9.718555868069362" cx="128.3951651771131" cy="32.84657061638798" opacity="0.5193594678867747"></circle><circle r="6.455347127016833" cx="433.57173120947283" cy="289.083372332815" opacity="0.12398382876736834"></circle><circle r="7.024598754365278" cx="344.9302953715905" cy="211.62133329872623" opacity="0.6612801001329603"></circle><circle r="5.196230996511138" cx="16.05308184965597" cy="225.15743856463155" opacity="0.18574124784898866"></circle><circle r="6.253663849641638" cx="124.7290893279114" cy="186.83370335404302" opacity="0.18093078072490337"></circle><circle r="8.284902137532804" cx="94.67779717762653" cy="471.6594664437082" opacity="0.59191781661199"></circle><circle r="5.54134343455676" cx="695.7635119154653" cy="21.857719834494866" opacity="0.10114292409753162"></circle><circle r="6.420936159514088" cx="424.1035363189771" cy="250.78244793974153" opacity="0.8577301479017975"></circle><circle r="6.363000570260839" cx="782.293695984721" cy="353.4112580863921" opacity="0.2845114819917538"></circle><circle r="6.484122745967312" cx="367.5414415903637" cy="174.75753193097444" opacity="0.3655839913701935"></circle><circle r="6.9246423535521595" cx="88.62615486891578" cy="321.13273545242856" opacity="0.84787099429084"></circle><circle r="8.420456954380642" cx="185.58282739239047" cy="775.3229343595864" opacity="0.7534903529979317"></circle><circle r="6.584094113958411" cx="201.36901472014068" cy="226.63631029795687" opacity="0.13815693963859868"></circle><circle r="9.138630655808054" cx="494.94902361481167" cy="514.0312937384853" opacity="0.4263702333024183"></circle><circle r="7.80695192540715" cx="117.23001265375726" cy="625.4658426964295" opacity="0.12096288735063547"></circle><circle r="5.677956123826538" cx="580.580078791977" cy="234.3121851210041" opacity="0.9391614875355437"></circle><circle r="8.523579879116182" cx="23.39633593385149" cy="191.78285589590226" opacity="0.9387412430920961"></circle><circle r="6.55164713417523" cx="461.4660890698474" cy="767.4005870828594" opacity="0.6352398480920084"></circle><circle r="8.933138898243325" cx="588.6034548677146" cy="287.10916564670305" opacity="0.36281764020119023"></circle><circle r="6.64413120806894" cx="241.99218168915732" cy="372.78468679844457" opacity="0.20812462396432943"></circle><circle r="7.378771895392213" cx="561.6094831907031" cy="741.9033006399758" opacity="0.10364444699411836"></circle><circle r="6.42850233668584" cx="119.99842971564803" cy="154.44168698504657" opacity="0.7047803219229072"></circle><circle r="4.793994636997595" cx="62.123454142441986" cy="704.3613157998401" opacity="0.44014879652317906"></circle><circle r="5.979489850864294" cx="281.5497189294431" cy="73.6045989153931" opacity="0.5700886201402873"></circle><circle r="7.288539520080308" cx="189.5696569454875" cy="49.505218338732355" opacity="0.8711049019511123"></circle><circle r="6.545187438806819" cx="89.37778011796668" cy="786.1135149840761" opacity="0.8151154153112011"></circle><circle r="6.788631126604245" cx="269.4548964771331" cy="661.7359754843711" opacity="0.5831111210345366"></circle><circle r="8.841144014967416" cx="571.1558666761938" cy="188.6205285979964" opacity="0.8869536183086628"></circle><circle r="4.66883263743216" cx="777.8400069657413" cy="15.759346638153051" opacity="0.977349619505247"></circle><circle r="5.22571627124492" cx="786.8017478116959" cy="41.71808535372821" opacity="0.3526816123072526"></circle><circle r="11.869692993939793" cx="774.5664650332359" cy="677.269965118547" opacity="0.8502404351134153"></circle><circle r="8.810916918155387" cx="195.0586444140655" cy="735.369604877601" opacity="0.9469014833421"></circle><circle r="6.906095758071695" cx="569.1080307227459" cy="444.38181894414305" opacity="0.16204193479041012"></circle><circle r="8.467124751585208" cx="164.61204932290946" cy="211.62172360226305" opacity="0.4093386803199264"></circle><circle r="12.851547392542514" cx="678.1852354006237" cy="280.500118676906" opacity="0.8786009724249902"></circle><circle r="6.044562285339865" cx="62.632245879007364" cy="120.89572428316959" opacity="0.8525532614210884"></circle><circle r="10.929979167589366" cx="343.5162296521281" cy="389.09617266935476" opacity="0.9389248537762385"></circle><circle r="10.788910675378164" cx="728.4128048473618" cy="64.61988843590429" opacity="0.5344462441453"></circle><circle r="5.901797197789138" cx="67.41825234179356" cy="365.6418907988187" opacity="0.34715148919612093"></circle><circle r="6.029703319722533" cx="688.8031526460367" cy="141.30558044347393" opacity="0.7635004713788313"></circle><circle r="6.490216752768349" cx="490.41886903937575" cy="781.2315371626064" opacity="0.10199398602936326"></circle><circle r="5.131646626028923" cx="430.7233201218812" cy="453.95218810970584" opacity="0.8380720075861161"></circle><circle r="7.872177894882862" cx="26.25253647994612" cy="620.9997950653484" opacity="0.7202233679151188"></circle><circle r="5.0115454366126775" cx="536.4952926164322" cy="215.1149600673272" opacity="0.4013783451138331"></circle><circle r="8.646878013527187" cx="491.27751019726526" cy="21.089883360246567" opacity="0.28964083778617933"></circle><circle r="5.666853943090874" cx="712.4280703797699" cy="620.97434359619" opacity="0.7496238908845263"></circle><circle r="5.34132342482388" cx="219.5374635450128" cy="779.9404594955457" opacity="0.15114836165057113"></circle><circle r="5.616236180144469" cx="174.7851423392922" cy="160.46622969315231" opacity="0.71512139299869"></circle><circle r="6.401916324242773" cx="638.7860363860509" cy="153.26456969528857" opacity="0.12501055221673035"></circle><circle r="7.336126203958601" cx="14.720762286641405" cy="282.63702449470605" opacity="0.937009835289208"></circle><circle r="5.863175136679075" cx="98.04010609873244" cy="580.6603506534925" opacity="0.13451405318843376"></circle><circle r="8.440466147041652" cx="771.8933279737373" cy="496.33932223420686" opacity="0.7562142368651679"></circle><circle r="7.579108531914843" cx="265.61938183522034" cy="576.5653702821628" opacity="0.7304130722401143"></circle><circle r="5.719258389699196" cx="547.0146368848137" cy="543.392358742042" opacity="0.9602645450665547"></circle><circle r="6.412458909147702" cx="399.3904878788282" cy="439.13575676366344" opacity="0.6207709823329877"></circle><circle r="8.032080158095955" cx="215.67623816312684" cy="676.508926039306" opacity="0.5158844363870443"></circle><circle r="9.299210192980699" cx="552.3900632923122" cy="22.50487883362755" opacity="0.11015516158346707"></circle><circle r="8.1303945271201" cx="225.5745559702518" cy="281.6430055644111" opacity="0.39683041871674485"></circle><circle r="9.683680200732862" cx="399.1933308597615" cy="539.9522135356524" opacity="0.3804177245066054"></circle><circle r="7.741499099878476" cx="586.0128353964221" cy="643.5408433321376" opacity="0.5796436045218288"></circle><circle r="7.704724181940577" cx="103.09336010287875" cy="375.1857532320742" opacity="0.7088635990589844"></circle><circle r="11.06871456029991" cx="441.6107963919723" cy="718.4823005251102" opacity="0.7922474439030949"></circle><circle r="4.936272501748432" cx="454.6132043637857" cy="241.16746309272835" opacity="0.8643733572998745"></circle><circle r="9.535564115335012" cx="219.68924356031218" cy="456.84024013001005" opacity="0.7627129330921987"></circle><circle r="9.439871925093396" cx="655.5500186352721" cy="635.2701180529906" opacity="0.7229861253712394"></circle><circle r="6.3666438543497" cx="44.9646858693476" cy="671.4136484590591" opacity="0.4148208102348283"></circle><circle r="4.893341881084826" cx="411.6722969291912" cy="321.35299985959574" opacity="0.39591378160860835"></circle><circle r="4.653054781061922" cx="138.3959034919986" cy="457.0598528713752" opacity="0.9299037056611354"></circle><circle r="10.74646010973147" cx="367.44213266696056" cy="24.239812476058173" opacity="0.31578775269374426"></circle><circle r="4.676127604705149" cx="27.782034165704523" cy="250.40641986790482" opacity="0.801017549264525"></circle><circle r="7.378148594012957" cx="126.44270452858879" cy="343.24820778945553" opacity="0.6851135716221792"></circle><circle r="8.287368873002691" cx="529.4794281805943" cy="399.75975893263654" opacity="0.557719020266068"></circle><circle r="11.39427910449725" cx="604.4077472494021" cy="344.0517006944502" opacity="0.5344540983606099"></circle><circle r="6.614681683719935" cx="217.65379188287903" cy="86.01060005114189" opacity="0.34427143082659495"></circle><circle r="5.3488704573784265" cx="274.79139867113196" cy="155.4953242447161" opacity="0.9871930975332948"></circle><circle r="6.814886633225223" cx="334.07158781932543" cy="145.6775980586844" opacity="0.9629633786784727"></circle><circle r="9.75501565438588" cx="770.61270899088" cy="778.6164880688973" opacity="0.6215064950877172"></circle><circle r="5.246480498801118" cx="55.360656803242044" cy="235.28381875184647" opacity="0.29537990150574156"></circle><circle r="7.238796197705339" cx="194.10305252065612" cy="594.0664095897268" opacity="0.10642173460617814"></circle><circle r="8.331504922750453" cx="256.0040015209701" cy="782.5809788393265" opacity="0.9649085908909383"></circle><circle r="6.252354607772585" cx="87.99995593228525" cy="418.67698580446825" opacity="0.6146675380108958"></circle><circle r="6.47404793521694" cx="203.000466655479" cy="306.4645444291755" opacity="0.26749760355618424"></circle><circle r="6.88259442971938" cx="714.6090237011748" cy="231.975354789171" opacity="0.8916033208342896"></circle><circle r="5.312022291222197" cx="676.1525994041102" cy="174.47776892163364" opacity="0.8383365975391011"></circle><circle r="5.242504057333532" cx="782.1027682137769" cy="113.68120997247874" opacity="0.7098804106451964"></circle><circle r="10.61544050568657" cx="775.1777223313871" cy="728.7169016186128" opacity="0.5520683020974266"></circle><circle r="9.783549683861727" cx="539.8123812733857" cy="629.437491271395" opacity="0.8607598093280988"></circle><circle r="4.753547367751796" cx="106.49003588536546" cy="520.39467617436" opacity="0.5018004620786853"></circle><circle r="4.053248615864854" cx="518.3434598260985" cy="277.4662032954319" opacity="0.5285174447995459"></circle><circle r="8.39335582133549" cx="527.3078919368704" cy="581.2967546044266" opacity="0.9059609904226589"></circle><circle r="6.625396580587498" cx="117.70690521698245" cy="76.6781235286454" opacity="0.471781890952505"></circle><circle r="10.404293820772416" cx="559.5095443930635" cy="134.436664600888" opacity="0.34927267258745276"></circle><circle r="10.454239128229947" cx="394.97111960800737" cy="649.1438399783665" opacity="0.1501853633923533"></circle><circle r="6.273399203997601" cx="717.8767615292653" cy="663.2683328520624" opacity="0.3287057158076737"></circle><circle r="5.561266191569939" cx="64.22990318032949" cy="759.3401491739661" opacity="0.61727750264106"></circle><circle r="7.84524648724193" cx="650.5973448914693" cy="512.2534776768995" opacity="0.6903757908251632"></circle><circle r="9.480862978459102" cx="740.3395650635492" cy="115.43569286407032" opacity="0.22424243135565022"></circle><circle r="13.622097894603154" cx="341.3303648015789" cy="488.913450005944" opacity="0.6312875572702294"></circle><circle r="4.310362556267607" cx="301.6060751951296" cy="781.8468871458905" opacity="0.7556460104918243"></circle><circle r="7.386123944914399" cx="15.263818814312959" cy="690.6297491614439" opacity="0.5762642391421967"></circle><circle r="5.280937495960649" cx="511.359775021974" cy="360.7651526061782" opacity="0.42816214758912097"></circle><circle r="8.332323203164169" cx="620.9413314891117" cy="238.812348149417" opacity="0.499372362192542"></circle><circle r="6.727190055295143" cx="451.4424357722011" cy="321.72548111248096" opacity="0.16981653644407385"></circle><circle r="5.3376244205185115" cx="124.15909170644348" cy="425.6977880586558" opacity="0.37410152131188146"></circle><circle r="10.585924370532517" cx="540.5387620354056" cy="698.4911380314039" opacity="0.7619448661878048"></circle><circle r="4.736566011536314" cx="35.8425750944403" cy="562.4653803063732" opacity="0.19197085178763362"></circle><circle r="4.495190143227355" cx="522.2967485787166" cy="780.8494245823869" opacity="0.960250855088705"></circle><circle r="9.826418298354099" cx="550.7022273773404" cy="501.1693489166484" opacity="0.8940061468792758"></circle><circle r="7.04178395143364" cx="379.80886847648594" cy="240.93454822896499" opacity="0.7676416858719844"></circle><circle r="4.75066945754936" cx="485.2211741115748" cy="261.92323315607615" opacity="0.7720736470384416"></circle><circle r="5.094413932232287" cx="584.0712455245327" cy="15.349898319304213" opacity="0.6525827670423285"></circle><circle r="9.416937951570052" cx="476.24827942575286" cy="69.64251250758076" opacity="0.5003672943582402"></circle><circle r="8.639091423034724" cx="768.4605058532144" cy="204.83960718589015" opacity="0.793097667832551"></circle><circle r="8.949056867445613" cx="144.39085499282197" cy="729.4620430815824" opacity="0.9248630121682209"></circle><circle r="8.870101458585808" cx="79.23611524267216" cy="20.57905584841651" opacity="0.9045352381842899"></circle><circle r="9.18820175107367" cx="308.4412647760737" cy="442.81824507720256" opacity="0.5839578841099275"></circle><circle r="7.531499872842919" cx="205.13583936341462" cy="628.9228869214428" opacity="0.7393264202520402"></circle><circle r="6.8285463397011155" cx="129.42114309360355" cy="230.4334544166721" opacity="0.9329381963332836"></circle><circle r="8.40205372849868" cx="624.0705303243606" cy="58.135982935821524" opacity="0.2606841495870533"></circle><circle r="6.606695514644965" cx="586.5214981329466" cy="774.8011091064213" opacity="0.41635839174156064"></circle><circle r="6.261911074970504" cx="407.50978461791505" cy="272.3469538156592" opacity="0.3934101056978514"></circle><circle r="6.447721708981501" cx="238.84367148662724" cy="711.2423488690272" opacity="0.2911102495487741"></circle><circle r="7.132739931987787" cx="518.6312007517241" cy="245.14024829850322" opacity="0.5647030280643232"></circle><circle r="9.111586994056921" cx="177.8403080131006" cy="455.7924338198074" opacity="0.41955885265546966"></circle><circle r="7.728402463935918" cx="70.45165040433963" cy="625.6803680804484" opacity="0.8807546717296205"></circle><circle r="5.864916631038046" cx="273.9330264671018" cy="227.30753379462018" opacity="0.3362556004654496"></circle><circle r="9.118354616245398" cx="428.5888533446622" cy="356.0553548898541" opacity="0.8709061318070604"></circle><circle r="5.266450414360899" cx="689.6746420352322" cy="74.57718004071936" opacity="0.7287100248043726"></circle><circle r="6.217626247284547" cx="234.7845126544621" cy="241.0251990973947" opacity="0.5826540525703308"></circle><circle r="6.120232229171492" cx="595.0802126353149" cy="723.609327884612" opacity="0.5898812458449876"></circle><circle r="5.386570786284573" cx="699.8429537000839" cy="782.2562072741732" opacity="0.2036813019422247"></circle><circle r="7.749455928322622" cx="420.5438878503129" cy="773.8800581230701" opacity="0.9140490647337339"></circle><circle r="7.288323717350856" cx="675.5977064533236" cy="217.37410609891424" opacity="0.13608878106962075"></circle><circle r="6.527877139461644" cx="663.5336426325063" cy="759.8561350115358" opacity="0.38296032223738463"></circle><circle r="5.970227220323892" cx="299.5066315710641" cy="148.82274772889855" opacity="0.37799893998941014"></circle><circle r="5.528911813037789" cx="564.2375345905898" cy="74.18687893071989" opacity="0.12062926009031902"></circle><circle r="6.312478184881855" cx="400.3925457443766" cy="699.424575947841" opacity="0.5581059062139092"></circle><circle r="7.073655147166301" cx="14.766055953140455" cy="760.3638170005944" opacity="0.39564842731593663"></circle><circle r="7.5813158838456225" cx="314.7428741477833" cy="695.1554777131728" opacity="0.673438409597797"></circle><circle r="4.960592793586064" cx="597.0707113416196" cy="155.89319442357353" opacity="0.22601669417293388"></circle><circle r="6.76399673047076" cx="727.831597082562" cy="752.9474420482944" opacity="0.8126694730942019"></circle><circle r="6.8518468779755395" cx="641.6287108109154" cy="14.894601059565975" opacity="0.7111351754430016"></circle><circle r="6.278766478573413" cx="761.0475678872155" cy="249.9313192159963" opacity="0.35211129324877366"></circle><circle r="6.587371164518464" cx="151.00413540133817" cy="130.2632037741453" opacity="0.4780076898656408"></circle><circle r="6.168339183088229" cx="586.9454370847569" cy="473.57864044966647" opacity="0.931980613752627"></circle><circle r="5.7016350754262" cx="318.38106345574" cy="180.11268475647648" opacity="0.564952831283822"></circle><circle r="6.486514179639776" cx="647.7100346428007" cy="785.9561616217867" opacity="0.4034457709794965"></circle><circle r="9.679399732982809" cx="566.8537592464726" cy="372.18257090557915" opacity="0.4183825745705766"></circle><circle r="7.8834243961460775" cx="502.15790409394197" cy="433.5557639162912" opacity="0.31659065103690764"></circle><circle r="9.013229984931193" cx="164.469361589465" cy="270.2645732981257" opacity="0.21180927432339375"></circle><circle r="3.2116857482598054" cx="789.2588761641158" cy="245.33681640987464" opacity="0.1253294279257106"></circle><circle r="5.857863934712862" cx="274.46491334886593" cy="188.5870374129163" opacity="0.7315997450275622"></circle><circle r="5.010335884918015" cx="487.43443756697235" cy="396.3790434277223" opacity="0.6011347972722234"></circle><circle r="4.406886779732626" cx="554.199523487188" cy="782.2392827089996" opacity="0.32364285370760826"></circle><circle r="6.979338186106381" cx="452.0370144558352" cy="546.1435617356237" opacity="0.23295932965147173"></circle><circle r="6.221137439712708" cx="711.1699272369207" cy="318.42223783092135" opacity="0.9753591297994483"></circle><circle r="8.60216784453435" cx="733.586374086772" cy="276.0022379174401" opacity="0.706126575125487"></circle><circle r="5.432490735956727" cx="11.205321084636122" cy="548.7348954523242" opacity="0.8400462365344241"></circle><circle r="8.263766533329509" cx="676.8619077071976" cy="479.4108110983844" opacity="0.23734087155261208"></circle><circle r="9.168604966358412" cx="204.5849383155309" cy="181.47185512622866" opacity="0.6231613074050683"></circle><circle r="10.108882350349415" cx="360.13218684342604" cy="599.4792757197672" opacity="0.7477038193461102"></circle><circle r="6.80984743283607" cx="302.25463618779077" cy="354.1947864264947" opacity="0.5606944386831683"></circle><circle r="4.962492157533292" cx="106.07108691801847" cy="711.9364887583195" opacity="0.17934867343078686"></circle><circle r="9.312851647599107" cx="16.45505582925621" cy="441.48845442706397" opacity="0.2372478823742257"></circle><circle r="10.344922415750903" cx="526.2421568531213" cy="164.30041303144193" opacity="0.27178051068226133"></circle><circle r="10.702755038494635" cx="350.3566200831518" cy="719.4447801541338" opacity="0.5707095864358824"></circle><circle r="6.890856280896887" cx="282.9629123376954" cy="312.79939068825144" opacity="0.4746113258834348"></circle><circle r="5.67209051857981" cx="520.6323518242742" cy="744.8474958271721" opacity="0.7080331579165798"></circle><circle r="5.780728512789909" cx="591.7503062342375" cy="98.4003493102497" opacity="0.29997943694128293"></circle><circle r="10.900712109179318" cx="487.56384608986406" cy="714.7243918376124" opacity="0.27232779248212347"></circle><circle r="6.971522707661512" cx="222.5474355207434" cy="564.1565427384533" opacity="0.7459350472251542"></circle><circle r="9.157983503601113" cx="143.31389023128318" cy="503.3467968834298" opacity="0.43392287656746953"></circle><circle r="6.274815012983772" cx="71.56417003786412" cy="733.1697820784073" opacity="0.8771753985178115"></circle><circle r="7.774644523805117" cx="305.5453403864106" cy="109.1959909475068" opacity="0.39985274125588677"></circle><circle r="11.89623050437934" cx="500.9324517654026" cy="664.079899563003" opacity="0.11856640010375401"></circle><circle r="5.086476877839582" cx="485.2911417072881" cy="297.1992625120046" opacity="0.9486820735563372"></circle><circle r="9.386002127797655" cx="168.76298682608564" cy="409.6079827605598" opacity="0.8073306826418034"></circle><circle r="6.496545116237585" cx="104.55710152665011" cy="673.8259975409778" opacity="0.40470671707991657"></circle><circle r="9.627203628744379" cx="77.15987037199191" cy="69.77662524799655" opacity="0.8776438567375415"></circle><circle r="7.898706607163071" cx="424.09787772958236" cy="216.31127021528604" opacity="0.33254922586302627"></circle><circle r="8.57419054885045" cx="721.9176726114666" cy="518.4806049498745" opacity="0.6518856827243272"></circle><circle r="4.928472882732254" cx="635.6072797075321" cy="553.3810757894713" opacity="0.35287308543928264"></circle><circle r="8.269228910133535" cx="192.26528549379478" cy="508.61005076300404" opacity="0.31784063631728565"></circle><circle r="5.506968007768954" cx="142.29362897492294" cy="778.445382406876" opacity="0.7464400515992751"></circle><circle r="9.820065312752721" cx="402.7725747519538" cy="489.6119440651648" opacity="0.8230896437904784"></circle><circle r="5.6721385000714974" cx="244.20972313279646" cy="622.5220631509844" opacity="0.34909239438758044"></circle></g></svg>